<?xml version="1.0" standalone="no"?>
<!DOCTYPE svg PUBLIC "-//W3C//DTD SVG 20010904//EN"
 "http://www.w3.org/TR/2001/REC-SVG-20010904/DTD/svg10.dtd">
<svg version="1.0" xmlns="http://www.w3.org/2000/svg"
 width="799.000000pt" height="799.000000pt" viewBox="0 0 799.000000 799.000000"
 preserveAspectRatio="xMidYMid meet">
<metadata>
Created by potrace 1.14, written by Peter Selinger 2001-2017
</metadata>
<g transform="translate(0.000000,799.000000) scale(0.100000,-0.100000)"
fill="#000000" stroke="none">
<path d="M5680 7974 c-25 -8 -76 -21 -115 -30 -38 -8 -77 -17 -85 -21 -8 -3
-19 -7 -25 -8 -5 0 -21 -6 -35 -12 -14 -6 -41 -17 -60 -25 -60 -25 -210 -123
-298 -194 -88 -71 -225 -218 -285 -306 -20 -29 -60 -87 -88 -128 -28 -41 -91
-147 -139 -235 -48 -88 -96 -176 -107 -195 -11 -19 -35 -64 -53 -100 -51 -97
-160 -289 -190 -335 -115 -171 -473 -798 -718 -1256 -110 -206 -214 -399 -231
-428 -17 -28 -31 -54 -31 -56 0 -6 -182 -309 -189 -315 -4 -3 -40 -57 -80
-120 -80 -126 -219 -326 -380 -550 -173 -240 -296 -390 -506 -615 -77 -83
-181 -198 -232 -257 -90 -105 -296 -369 -317 -408 -6 -11 -48 -70 -92 -132
-161 -224 -279 -447 -346 -658 -23 -69 -43 -132 -46 -140 -3 -8 -7 -22 -8 -30
-10 -53 -13 -68 -18 -90 -24 -96 -28 -507 -7 -605 7 -33 22 -79 32 -102 10
-23 19 -46 19 -51 0 -14 73 -123 111 -165 93 -105 305 -229 499 -291 47 -15
94 -32 105 -37 11 -5 61 -18 110 -30 50 -11 108 -25 130 -30 67 -15 411 -21
505 -9 106 15 338 69 345 80 3 5 12 7 20 3 8 -3 15 -1 15 4 0 5 11 10 23 11
22 1 54 14 235 91 150 64 188 83 261 133 168 114 293 226 628 564 271 274 467
478 588 615 152 170 312 357 334 389 42 59 136 202 181 275 84 137 235 386
269 443 72 123 202 344 280 476 82 138 192 349 206 396 4 14 20 50 36 80 28
56 58 126 58 135 0 3 7 18 15 33 9 15 36 74 62 132 25 57 81 174 124 260 84
168 138 285 220 480 28 69 81 190 117 270 106 236 133 299 174 415 22 61 46
124 53 140 8 17 26 68 40 115 15 47 30 92 33 100 3 8 7 17 8 20 1 3 5 12 8 20
14 31 77 262 77 280 0 10 4 21 9 24 14 9 61 269 70 386 9 120 5 273 -10 410
-11 102 -36 256 -46 280 -3 8 -7 20 -8 26 -7 32 -90 194 -130 255 -125 187
-380 394 -623 505 -278 128 -389 154 -502 118z"/>
<path d="M6285 310 c-8 -13 39 -24 70 -16 37 9 21 26 -25 26 -21 0 -42 -4 -45
-10z"/>
</g>
</svg>
